<svg width="87" height="48" viewBox="0 0 87 48" fill="none" xmlns="http://www.w3.org/2000/svg">
<g clip-path="url(#clip0_6_1602)">
<path d="M51.8681 18.9888L51.8206 24.726L61.1051 24.1989L62.5806 20.2965L51.8681 18.9888Z" fill="#44C420"/>
<path d="M62.1736 24.6142L63.6492 20.7114L64.1725 19.3272L62.7164 19.1494L52.0043 17.8403L50.7337 17.6859L50.7236 18.9806L50.6759 24.7183L50.6653 25.952L51.8839 25.8827L61.1681 25.3568L61.9077 25.314L62.172 24.6135L62.1736 24.6142ZM51.8202 24.727L51.8679 18.9893L62.58 20.2983L61.1044 24.2012L51.8202 24.727Z" fill="#2C2D3C"/>
<path d="M70.9714 23.4438L68.4294 26.7406L74.9567 34.7952L78.4543 30.2785L70.9714 23.4438Z" fill="#44C420"/>
<path d="M79.2231 29.4204L71.7403 22.5853L70.8265 21.7514L70.0697 22.7326L67.5274 26.0298L66.9653 26.7591L67.5455 27.4753L74.0712 35.5298L74.9778 36.6474L75.8586 35.5108L79.358 30.9943L80.0159 30.145L79.2247 29.4211L79.2231 29.4204ZM74.9565 34.796L68.4308 26.7415L70.9731 23.4443L78.4559 30.2794L74.9565 34.796Z" fill="#2C2D3C"/>
<path d="M62.5254 24.7118L67.8389 26.4533L72.1139 16.4283L66.8953 13.6757L62.5254 24.7118Z" fill="#44C420"/>
<path d="M72.642 15.4015L67.4235 12.6489L66.302 12.0575L65.832 13.2445L61.4629 24.2829L61.0086 25.4329L62.1734 25.8151L67.487 27.5566L68.4789 27.8811L68.8915 26.9144L73.1656 16.8871L73.587 15.8994L72.6436 15.4022L72.642 15.4015ZM67.8382 26.455L62.5246 24.7135L66.8937 13.6751L72.1122 16.4277L67.8382 26.455Z" fill="#2C2D3C"/>
<path d="M68.7089 22.2048C68.5769 22.3793 68.4057 22.4819 68.1903 22.516C67.9692 22.5457 67.7714 22.4981 67.5968 22.3733C67.4214 22.2461 67.3171 22.0795 67.2792 21.8713C67.2464 21.6558 67.2952 21.4604 67.4266 21.2875C67.5586 21.1129 67.7298 21.0103 67.9452 20.9762C68.1647 20.9458 68.3626 20.9934 68.5387 21.119C68.7125 21.2454 68.8184 21.4127 68.8563 21.6209C68.8891 21.8364 68.8403 22.0318 68.7089 22.2048Z" fill="#F2F2F2"/>
<path d="M70.3432 18.3401C70.2111 18.5147 70.04 18.6173 69.8245 18.6513C69.6034 18.681 69.4056 18.6335 69.231 18.5086C69.0556 18.3815 68.9527 18.2116 68.9182 17.9954C68.8826 17.7863 68.9294 17.5958 69.0615 17.4212C69.1935 17.2466 69.3715 17.1413 69.5937 17.1045C69.8069 17.0713 70.0015 17.1175 70.1761 17.2424C70.3499 17.3689 70.4544 17.5394 70.4889 17.7556C70.5234 17.9718 70.473 18.1665 70.3416 18.3394L70.3432 18.3401Z" fill="#F2F2F2"/>
<path d="M67.8916 12.3317L72.5704 14.5963L74.7704 9.5982L69.684 7.41749L67.8916 12.3317Z" fill="#44C420"/>
<path d="M75.2172 8.53259L70.1309 6.35187L69.0256 5.87767L68.6101 7.01587L66.8176 11.9301L66.4575 12.9194L67.3983 13.3738L72.0771 15.6384L73.1391 16.1528L73.6173 15.0664L75.8173 10.0682L76.2914 8.99144L75.2179 8.53098L75.2172 8.53259ZM72.571 14.5949L67.8922 12.3302L69.6847 7.41603L74.771 9.59674L72.571 14.5949Z" fill="#2C2D3C"/>
<path d="M63.8628 28.5375L67.8062 30.5999L74.606 21.118L73.1734 17.8054L63.8628 28.5375Z" fill="#44C420"/>
<path d="M75.655 20.6546L74.2224 17.342L73.5 15.6735L72.3125 17.0421L63.0019 27.7742L62.0376 28.886L63.3361 29.5653L67.2788 31.6294L68.1541 32.0877L68.7318 31.2816L75.5322 21.798L75.9168 21.2616L75.655 20.6546ZM67.8061 30.6002L63.8634 28.5361L73.174 17.804L74.6066 21.1166L67.8061 30.6002Z" fill="#2C2D3C"/>
<path d="M62.2342 14.5406L59.024 26.2644L62.6978 27.2094L65.3448 13.8139L62.2342 14.5406Z" fill="#44C420"/>
<path d="M63.8209 27.437L66.4673 14.0431L66.8145 12.2846L65.0863 12.6881L61.9773 13.4156L61.314 13.5712L61.1327 14.2354L57.9224 25.9591L57.6098 27.0983L58.7437 27.3893L62.4182 28.3327L63.5859 28.6326L63.8225 27.4377L63.8209 27.437ZM59.0248 26.2669L62.2351 14.5431L65.3441 13.8157L62.6977 27.2096L59.0232 26.2662L59.0248 26.2669Z" fill="#2C2D3C"/>
</g>
<g clip-path="url(#clip1_6_1602)">
<path d="M6.00507 36.3059L10.5234 44.4588L23.2314 36.1231L22.1989 29.3978L6.00507 36.3059Z" fill="#FEBE14"/>
<path d="M25.0738 35.8355L24.0412 29.1102L23.675 26.725L21.4738 27.6639L5.27971 34.5692L3.35958 35.3894L4.38001 37.2285L8.89838 45.3814L9.86933 47.1347L11.5372 46.0405L24.2455 37.7077L25.2571 37.0424L25.071 35.8359L25.0738 35.8355ZM10.5235 44.4583L6.00511 36.3054L22.1992 29.4001L23.2318 36.1255L10.5235 44.4583Z" fill="#2C2D3C"/>
<path d="M36.5788 26.9877L35.6191 33.7285L51.2871 39.7839L52.6231 30.5367L36.5788 26.9877Z" fill="#FEBE14"/>
<path d="M53.0242 28.6945L36.98 25.1455L35.0214 24.7133L34.7353 26.7195L33.7756 33.4603L33.5637 34.9511L34.9565 35.4897L50.6218 41.5454L52.7969 42.3847L53.1341 40.0575L54.4728 30.8099L54.7243 29.0711L53.027 28.6942L53.0242 28.6945ZM51.2871 39.7839L35.6219 33.7282L36.5816 26.9874L52.6259 30.5364L51.2871 39.7839Z" fill="#2C2D3C"/>
<path d="M25.6486 35.6853L34.5542 33.8045L32.5871 16.1333L23.0077 16.5066L25.6486 35.6853Z" fill="#FEBE14"/>
<path d="M32.5133 14.2493L22.9339 14.6227L20.8753 14.7031L21.1594 16.7658L23.8034 35.9469L24.08 37.9447L26.0327 37.533L34.9383 35.6522L36.6004 35.3002L36.4111 33.5958L34.4409 15.9221L34.2475 14.181L32.5161 14.249L32.5133 14.2493ZM34.5545 33.8073L25.6489 35.6881L23.0049 16.507L32.5843 16.1336L34.5545 33.8073Z" fill="#2C2D3C"/>
<path d="M32.3894 27.085C32.3421 27.4398 32.1821 27.7247 31.9047 27.949C31.6157 28.1718 31.298 28.2662 30.9514 28.2323C30.6016 28.1959 30.321 28.0455 30.1011 27.7821C29.8824 27.5042 29.7952 27.188 29.8428 26.8361C29.89 26.4813 30.05 26.1963 30.3275 25.972C30.6136 25.7496 30.9314 25.6552 31.2808 25.6887C31.6277 25.7254 31.9111 25.8755 32.131 26.1389C32.3498 26.4168 32.4369 26.733 32.3894 27.085Z" fill="#F2F2F2"/>
<path d="M31.6116 20.2845C31.5644 20.6393 31.4043 20.9243 31.1269 21.1485C30.838 21.3713 30.5202 21.4657 30.1736 21.4318C29.8239 21.3955 29.5426 21.2394 29.3211 20.9619C29.1036 20.6953 29.0175 20.3876 29.0647 20.0328C29.1119 19.678 29.2794 19.3835 29.5642 19.1498C29.8392 18.9287 30.1514 18.8349 30.498 18.8688C30.8449 18.9055 31.129 19.0612 31.3505 19.3388C31.572 19.6163 31.6564 19.9328 31.6088 20.2848L31.6116 20.2845Z" fill="#F2F2F2"/>
<path d="M23.3431 13.7926L31.7695 13.1704L30.8857 4.30309L21.9501 5.37709L23.3431 13.7926Z" fill="#FEBE14"/>
<path d="M30.666 2.431L21.7304 3.505L19.7884 3.73791L20.1105 5.68736L21.5035 14.1028L21.785 15.7965L23.4785 15.6699L31.9049 15.0477L33.8178 14.907L33.6257 12.9796L32.7419 4.11227L32.5517 2.2018L30.6657 2.42817L30.666 2.431ZM31.7693 13.1681L23.3428 13.7903L21.9499 5.37482L30.8855 4.30082L31.7693 13.1681Z" fill="#2C2D3C"/>
<path d="M30.5977 40.0018L37.8224 39.6949L39.8596 20.7278L35.1863 17.2144L30.5977 40.0018Z" fill="#FEBE14"/>
<path d="M40.9725 19.2149L36.2993 15.7015L33.9443 13.9326L33.3589 16.8386L28.7703 39.6261L28.2953 41.9866L30.6744 41.8858L37.8994 41.5817L39.5034 41.5143L39.6759 39.9022L41.7128 20.9322L41.828 19.8593L40.9725 19.2149ZM37.8225 39.6952L30.5975 39.9993L35.186 17.2118L39.8593 20.7253L37.8225 39.6952Z" fill="#2C2D3C"/>
<path d="M17.1083 21.5397L21.9386 40.7428L27.8889 39.076L20.9261 17.9692L17.1083 21.5397Z" fill="#FEBE14"/>
<path d="M29.6589 38.4798L22.6964 17.3758L21.7819 14.6052L19.6605 16.5885L15.8455 20.1587L15.032 20.921L15.3065 22.0085L20.1368 41.2115L20.6052 43.078L22.4412 42.5626L28.3912 40.893L30.2821 40.3625L29.6617 38.4795L29.6589 38.4798ZM21.9417 40.7456L17.1113 21.5425L20.9263 17.9723L27.8889 39.0763L21.9389 40.7459L21.9417 40.7456Z" fill="#2C2D3C"/>
</g>
<defs>
<clipPath id="clip0_6_1602">
<rect width="31.8218" height="25.9046" fill="white" transform="matrix(0.917837 0.396939 -0.389474 0.921029 57.7928 0.993156)"/>
</clipPath>
<clipPath id="clip1_6_1602">
<rect width="51.7478" height="42.2608" fill="white" transform="matrix(0.993219 -0.116195 0.113621 0.993516 0 6.01283)"/>
</clipPath>
</defs>
</svg>
