<svg width="87" height="63" viewBox="0 0 87 63" fill="none" xmlns="http://www.w3.org/2000/svg">
<path d="M5.85502 39.4776L3.93364 57.106L13.6771 56.0172L12.9553 38.6675L5.85502 39.4776Z" fill="#02D6E9"/>
<path d="M15.8294 55.9296L15.1076 38.5766L15.0101 36.2694L12.7083 36.5319L5.60802 37.342L3.89796 37.5364L3.71265 39.2409L1.78801 56.8693L1.49867 59.533L4.17105 59.2349L13.9145 58.1461L15.9106 57.9225L15.8261 55.9231L15.8294 55.9296ZM3.93047 57.1091L5.8551 39.4807L12.9554 38.6706L13.6772 56.0236L3.93372 57.1124L3.93047 57.1091Z" fill="#2C2D3C"/>
<path d="M76.5165 43.5975L75.0999 58.8047L67.0653 56.2067L70.6643 41.6902L76.5165 43.5975Z" fill="#FEBE14"/>
<path d="M65.2641 55.7619L68.8637 41.2427L69.3436 39.3125L71.2408 39.9306L77.0929 41.8379L78.5025 42.2967L78.3651 43.767L76.9513 58.9748L76.7364 61.2725L74.5326 60.5603L66.4981 57.9624L64.8521 57.4297L65.268 55.757L65.2641 55.7619ZM75.102 58.8079L76.5158 43.6001L70.6637 41.6929L67.0641 56.2121L75.0987 58.8101L75.102 58.8079Z" fill="#2C2D3C"/>
<path d="M4.28826 36.9209L13.8984 36.0492L13.9537 17.4454L2.37988 16.6709L4.28826 36.9209Z" fill="#02D6E9"/>
<path d="M14.0999 15.3035L2.52608 14.5258L0 14.3572L0.237328 16.8719L2.1457 37.1219L2.34727 39.2541L4.48647 39.0597L14.0966 38.188L16.0505 38.0098L16.057 36.0558L16.1123 17.4552L16.1188 15.4428L14.1031 15.3067L14.0999 15.3035ZM13.9016 36.0493L4.29141 36.921L2.37978 16.671L13.9536 17.4487L13.8983 36.0493H13.9016Z" fill="#2C2D3C"/>
<path d="M78.2789 41.7085L70.3194 39.3167L73.4788 23.608L83.3791 24.949L78.2789 41.7085Z" fill="#FEBE14"/>
<path d="M73.7245 21.7755L83.6253 23.1138L85.786 23.4069L85.1524 25.488L80.0522 42.2475L79.5146 44.0121L77.7429 43.4794L69.7834 41.0876L68.1653 40.6005L68.4966 38.9504L71.6555 23.2444L71.9968 21.5451L73.7212 21.7777L73.7245 21.7755ZM70.3166 39.3164L78.2761 41.7082L83.3791 24.9493L73.4783 23.611L70.3194 39.317L70.3166 39.3164Z" fill="#2C2D3C"/>
<path d="M12.2142 28.4142C12.1005 28.8549 11.8534 29.1952 11.4665 29.435C11.0829 29.691 10.6635 29.772 10.2148 29.6748C9.76618 29.5776 9.42807 29.3378 9.20375 28.9554C8.96317 28.573 8.8949 28.1582 8.99893 27.7207C9.10297 27.28 9.35655 26.9398 9.75643 26.7C10.1401 26.4602 10.5594 26.3889 11.0081 26.4829C11.4567 26.5801 11.7948 26.8199 12.0192 27.2023C12.2598 27.5717 12.3248 27.9735 12.211 28.4142H12.2142Z" fill="#F2F2F2"/>
<path d="M12.2142 21.758C12.1004 22.1987 11.8533 22.539 11.4664 22.7788C11.0633 23.0186 10.6439 23.0899 10.2018 22.9959C9.75963 22.8987 9.41827 22.6589 9.17769 22.2765C8.93711 21.9103 8.87209 21.5053 8.98588 21.0645C9.09642 20.6238 9.35325 20.2771 9.75638 20.0211C10.14 19.7813 10.5561 19.71 10.995 19.804C11.4372 19.9012 11.7785 20.141 12.0191 20.5234C12.2597 20.9058 12.3247 21.3173 12.2109 21.758H12.2142Z" fill="#F2F2F2"/>
<path d="M73.0565 33.1653C73.0766 33.5568 73.2265 33.8865 73.5116 34.1556C73.7912 34.4377 74.1312 34.5784 74.5265 34.5736C74.9219 34.5689 75.2485 34.4248 75.5037 34.1408C75.7726 33.8596 75.9017 33.5213 75.8893 33.1342C75.8775 32.7444 75.7221 32.4136 75.426 32.1423C75.1436 31.8738 74.802 31.7414 74.4072 31.7434C74.0118 31.7481 73.6852 31.8922 73.43 32.1762C73.1633 32.4465 73.0392 32.7744 73.0593 33.1659L73.0565 33.1653Z" fill="#F2F2F2"/>
<path d="M74.2037 27.5486C74.2237 27.9401 74.3736 28.2698 74.6587 28.5388C74.9576 28.8106 75.2992 28.9431 75.6885 28.94C76.0784 28.9341 76.4078 28.7906 76.6767 28.5094C76.9428 28.2418 77.0675 27.9112 77.0474 27.5197C77.0301 27.1288 76.8731 26.7919 76.5771 26.5064C76.2947 26.2379 75.9558 26.106 75.5692 26.1097C75.1793 26.1155 74.85 26.2591 74.581 26.5403C74.3121 26.8215 74.1863 27.1576 74.2064 27.5491L74.2037 27.5486Z" fill="#F2F2F2"/>
<path d="M3.78086 13.1776L12.7343 13.5535L12.8708 4.23378L3.32571 4.26294L3.78086 13.1776Z" fill="#02D6E9"/>
<path d="M14.8864 13.5859L15.023 4.26615L15.0555 2.0788L12.861 2.08528L3.31916 2.11769L1.05967 2.12417L1.17345 4.37309L1.6286 13.2845L1.72939 15.2385L3.68978 15.3228L12.6432 15.6987L14.8572 15.7927L14.8897 13.5859H14.8864ZM12.731 13.5535L3.77756 13.1776L3.32241 4.26615L12.8675 4.23374L12.731 13.5535Z" fill="#2C2D3C"/>
<path d="M17.6206 17.6235L17.2077 21.833L27.8452 20.3132L26.0701 15.0408L17.6206 17.6235Z" fill="#02D6E9"/>
<path d="M29.8869 19.6327L28.1118 14.3571L27.4453 12.3739L25.4394 12.9864L16.9899 15.5691L15.6179 15.9871L15.4781 17.4129L15.0652 21.6256L14.7987 24.3476L17.5166 23.9588L28.154 22.439L30.7126 22.0728L29.8901 19.6294L29.8869 19.6327ZM17.2045 21.8362L17.6173 17.6236L26.0669 15.0409L27.8419 20.3164L17.2045 21.8362Z" fill="#2C2D3C"/>
<path d="M82.7988 21.7606L75.1785 20.5348L76.6694 12.6467L84.7192 14.3162L82.7988 21.7606Z" fill="#FEBE14"/>
<path d="M73.3567 20.1916L74.8476 12.3034L75.1971 10.452L77.0479 10.8356L85.0944 12.5074L87 12.9022L86.5164 14.7804L84.5966 22.2221L84.1748 23.8536L82.5059 23.5869L74.8856 22.3611L73.0011 22.0589L73.354 20.191L73.3567 20.1916ZM75.1812 20.5357L82.8016 21.7615L84.7214 14.3198L76.6721 12.6475L75.1812 20.5357Z" fill="#2C2D3C"/>
<path d="M70.3537 23.1276L69.9767 26.751L61.262 23.6353L63.6685 19.492L70.3537 23.1276Z" fill="#FEBE14"/>
<path d="M59.6562 22.7091L62.0633 18.5632L62.9675 17.0045L64.5547 17.867L71.2399 21.5026L72.3256 22.0918L72.1978 23.3191L71.8203 26.9452L71.5761 29.2882L69.3496 28.4916L60.6349 25.3759L58.5388 24.626L59.654 22.7058L59.6562 22.7091ZM69.9788 26.7543L70.3563 23.1282L63.6711 19.4926L61.264 23.6385L69.9788 26.7543Z" fill="#2C2D3C"/>
<path d="M21.2911 14.8332L33.6192 13.0672L33.9378 15.5915L22.8711 16.5831L21.2879 14.8365L21.2911 14.8332Z" fill="#2C2D3C"/>
<path d="M33.6225 13.0669L33.9411 15.5913L22.8744 16.5829L21.2912 14.8363L33.6192 13.0702M35.209 10.9898L33.3559 11.2555L21.0278 13.0216L17.611 13.5109L19.9225 16.0644L21.5057 17.811L22.1202 18.4916L23.0337 18.4105L34.1004 17.4189L35.999 17.2504L35.7617 15.3645L35.4431 12.8401L35.209 10.9898Z" fill="#2C2D3C"/>
<path d="M67.7375 20.1404L57.6386 16.5255L56.9347 18.6008L66.1026 21.3448L67.7397 20.1437L67.7375 20.1404Z" fill="#2C2D3C"/>
<path d="M57.6359 16.5249L56.932 18.6002L66.0999 21.3442L67.7369 20.1431L57.638 16.5282M56.655 14.4986L58.173 15.0422L68.2719 18.6571L71.071 19.6589L68.6803 21.4154L67.0432 22.6164L66.4074 23.0848L65.6505 22.859L56.4826 20.1151L54.9094 19.6457L55.4347 18.095L56.1386 16.0197L56.655 14.4986Z" fill="#2C2D3C"/>
</svg>
